<svg width="449" height="141" viewBox="0 0 449 141" fill="none" xmlns="http://www.w3.org/2000/svg">
<path d="M55.8281 119.531C60.5156 119.531 64.875 118.125 68.9062 115.312C71.1562 113.625 73.8281 111 76.9219 107.438V65.3906C69.2344 67.2656 62.4844 70.2188 56.6719 74.25C46.8281 81.0938 41.9062 89.8125 41.9062 100.406C41.9062 106.688 43.3125 111.469 46.125 114.75C49.0312 117.938 52.2656 119.531 55.8281 119.531ZM0 109.125C0 96.1875 6.23438 85.9219 18.7031 78.3281C31.1719 70.7344 50.7188 63.0938 77.3438 55.4062V34.4531C77.3438 25.9219 75.5156 19.6406 71.8594 15.6094C68.2969 11.4844 61.9219 9.42188 52.7344 9.42188C47.5781 9.42188 43.3125 10.4062 39.9375 12.375C36.6562 14.25 35.0156 16.6406 35.0156 19.5469C35.0156 20.6719 35.2031 21.6094 35.5781 22.3594C35.9531 23.1094 36.5156 23.9062 37.2656 24.75L38.9531 26.7188C40.2656 28.3125 41.2969 30.0938 42.0469 32.0625C42.8906 33.9375 43.3125 35.9531 43.3125 38.1094C43.3125 43.5469 41.4844 47.7656 37.8281 50.7656C34.2656 53.6719 30.0938 55.125 25.3125 55.125C19.7812 55.125 15.0469 53.4844 11.1094 50.2031C7.26562 46.9219 5.34375 42.1875 5.34375 36C5.34375 24.9375 10.5469 16.1719 20.9531 9.70312C31.3594 3.23438 44.1562 0 59.3438 0C75.6562 0 89.2969 3.14062 100.266 9.42188C111.141 15.7969 116.578 27.5156 116.578 44.5781V114.328C116.578 116.391 117.094 118.172 118.125 119.672C119.25 121.078 120.469 121.781 121.781 121.781C122.906 121.781 123.891 121.594 124.734 121.219C125.672 120.75 127.078 119.578 128.953 117.703L133.312 123.75C127.688 130.312 121.453 134.906 114.609 137.531C110.297 139.219 105.75 140.062 100.969 140.062C92.4375 140.062 86.2031 137.578 82.2656 132.609C80.0156 129.797 78.375 125.625 77.3438 120.094C69.375 128.062 60.375 133.688 50.3438 136.969C44.25 139.031 38.25 140.062 32.3438 140.062C24.4688 140.062 17.1094 137.578 10.2656 132.609C3.42188 127.547 0 119.719 0 109.125Z" fill="black"/>
<path d="M141.328 129.094C146.578 128.438 150.188 127.312 152.156 125.719C155.344 123.188 156.938 118.5 156.938 111.656V27C156.938 21 155.859 16.9219 153.703 14.7656C151.547 12.6094 147.422 11.1562 141.328 10.4062V3.375H195.891V24.0469C200.672 17.7656 205.312 12.8906 209.812 9.42188C218.156 3.14062 227.438 0 237.656 0C249.188 0 258.141 2.71875 264.516 8.15625C268.078 11.25 271.453 16.3125 274.641 23.3438H276.609C282.047 16.6875 287.25 11.6719 292.219 8.29688C300.094 2.76562 308.672 0 317.953 0C328.078 0 336.984 3.23438 344.672 9.70312C352.453 16.1719 356.344 26.3906 356.344 40.3594V112.781C356.344 119.438 357.422 123.703 359.578 125.578C361.734 127.359 365.531 128.531 370.969 129.094V135.984H302.625V129.094C307.875 128.344 311.531 127.078 313.594 125.297C315.656 123.422 316.688 119.25 316.688 112.781V43.0312C316.688 35.5312 315.562 29.7188 313.312 25.5938C311.156 21.4688 306.984 19.4062 300.797 19.4062C295.828 19.4062 290.578 21.7031 285.047 26.2969C279.609 30.7969 276.891 33.9375 276.891 35.7188V112.781C276.891 119.062 277.828 123.094 279.703 124.875C281.578 126.656 285.094 128.062 290.25 129.094V135.984H222.891V129.094C227.953 128.438 231.562 127.219 233.719 125.438C235.875 123.562 236.953 119.344 236.953 112.781V43.0312C236.953 35.7188 235.922 29.9531 233.859 25.7344C231.797 21.5156 227.531 19.4062 221.062 19.4062C215.156 19.4062 209.672 21.8438 204.609 26.7188C199.547 31.5 197.016 34.5 197.016 35.7188V112.781C197.016 119.062 197.906 123.094 199.688 124.875C201.469 126.656 204.984 128.062 210.234 129.094V135.984H141.328V129.094Z" fill="black"/>
<path d="M399.516 115.734C399.516 108.984 401.859 103.266 406.547 98.5781C411.328 93.7969 417.094 91.4062 423.844 91.4062C430.594 91.4062 436.312 93.7969 441 98.5781C445.781 103.266 448.172 108.984 448.172 115.734C448.172 122.484 445.781 128.25 441 133.031C436.312 137.719 430.594 140.062 423.844 140.062C417.094 140.062 411.328 137.719 406.547 133.031C401.859 128.25 399.516 122.484 399.516 115.734Z" fill="black"/>
</svg>
