<svg width="177" height="57" viewBox="0 0 177 57" fill="none" xmlns="http://www.w3.org/2000/svg">
<path d="M22.0486 47.9539C23.8999 47.9539 25.6216 47.3985 27.2137 46.2878C28.1023 45.6213 29.1575 44.5846 30.3794 43.1776V26.5717C27.3433 27.3123 24.6774 28.4786 22.3819 30.0707C18.4942 32.7735 16.5504 36.2169 16.5504 40.4007C16.5504 42.8814 17.1057 44.7697 18.2165 46.0656C19.3643 47.3245 20.6417 47.9539 22.0486 47.9539ZM0 43.8441C0 38.7346 2.46219 34.6803 7.38657 31.6813C12.311 28.6822 20.0307 25.6646 30.546 22.6285V14.3534C30.546 10.984 29.824 8.50335 28.38 6.91125C26.973 5.28213 24.4553 4.46758 20.8268 4.46758C18.7904 4.46758 17.1057 4.85634 15.7728 5.63388C14.4769 6.37438 13.829 7.31853 13.829 8.46632C13.829 8.91063 13.903 9.28088 14.0511 9.57708C14.1992 9.87329 14.4214 10.188 14.7176 10.5212L15.3841 11.2988C15.9024 11.9282 16.3097 12.6317 16.6059 13.4092C16.9391 14.1497 17.1057 14.9458 17.1057 15.7974C17.1057 17.9448 16.3837 19.611 14.9398 20.7958C13.5328 21.9436 11.8852 22.5175 9.99686 22.5175C7.81236 22.5175 5.94258 21.8695 4.38751 20.5736C2.86947 19.2777 2.11045 17.408 2.11045 14.9643C2.11045 10.5953 4.16536 7.13341 8.27518 4.57865C12.385 2.0239 17.439 0.746521 23.4371 0.746521C29.8795 0.746521 35.2667 1.98687 39.5987 4.46758C43.8936 6.9853 46.0411 11.6135 46.0411 18.3521V45.899C46.0411 46.7136 46.2447 47.4171 46.652 48.0095C47.0963 48.5648 47.5777 48.8425 48.096 48.8425C48.5403 48.8425 48.9291 48.7685 49.2623 48.6204C49.6326 48.4353 50.1879 47.9724 50.9285 47.2319L52.6501 49.6201C50.4286 52.2119 47.9664 54.0261 45.2636 55.0628C43.5604 55.7293 41.7647 56.0625 39.8764 56.0625C36.5071 56.0625 34.0449 55.0813 32.4898 53.119C31.6012 52.0082 30.9532 50.3606 30.546 48.1761C27.3988 51.3232 23.8444 53.5448 19.8826 54.8407C17.476 55.6552 15.1064 56.0625 12.7738 56.0625C9.66363 56.0625 6.75714 55.0813 4.05428 53.119C1.35143 51.1196 0 48.028 0 43.8441Z" fill="black"/>
<path d="M55.8158 51.7305C57.8892 51.4713 59.3147 51.027 60.0922 50.3976C61.3511 49.3979 61.9805 47.5466 61.9805 44.8438V11.4098C61.9805 9.04021 61.5548 7.42961 60.7032 6.57802C59.8516 5.72644 58.2225 5.15255 55.8158 4.85634V2.07944H77.3646V10.2435C79.2529 7.76284 81.0857 5.83752 82.8629 4.46758C86.1581 1.98687 89.8237 0.746521 93.8594 0.746521C98.4136 0.746521 101.949 1.82026 104.467 3.96773C105.874 5.18957 107.207 7.18894 108.466 9.96585H109.243C111.391 7.33705 113.446 5.35619 115.408 4.02327C118.518 1.83877 121.906 0.746521 125.572 0.746521C129.57 0.746521 133.088 2.0239 136.124 4.57865C139.197 7.13341 140.734 11.1692 140.734 16.686V45.2881C140.734 47.9169 141.159 49.6016 142.011 50.3421C142.863 51.0456 144.362 51.5084 146.51 51.7305V54.4519H119.518V51.7305C121.591 51.4343 123.035 50.9345 123.85 50.231C124.665 49.4905 125.072 47.8429 125.072 45.2881V17.7412C125.072 14.7792 124.628 12.4836 123.739 10.8545C122.887 9.22534 121.24 8.41078 118.796 8.41078C116.834 8.41078 114.76 9.31791 112.576 11.1322C110.428 12.9094 109.355 14.1497 109.355 14.8532V45.2881C109.355 47.7688 109.725 49.3609 110.465 50.0644C111.206 50.7679 112.594 51.3232 114.631 51.7305V54.4519H88.0279V51.7305C90.0273 51.4713 91.4528 50.99 92.3044 50.2865C93.1559 49.546 93.5817 47.8799 93.5817 45.2881V17.7412C93.5817 14.8532 93.1745 12.5761 92.3599 10.91C91.5453 9.24385 89.8607 8.41078 87.3059 8.41078C84.9733 8.41078 82.8073 9.37344 80.808 11.2988C78.8086 13.1871 77.8089 14.3719 77.8089 14.8532V45.2881C77.8089 47.7688 78.1606 49.3609 78.8641 50.0644C79.5676 50.7679 80.9561 51.3232 83.0295 51.7305V54.4519H55.8158V51.7305Z" fill="black"/>
<path d="M157.784 46.4544C157.784 43.7886 158.709 41.53 160.561 39.6787C162.449 37.7905 164.726 36.8463 167.392 36.8463C170.058 36.8463 172.316 37.7905 174.168 39.6787C176.056 41.53 177 43.7886 177 46.4544C177 49.1202 176.056 51.3973 174.168 53.2856C172.316 55.1369 170.058 56.0625 167.392 56.0625C164.726 56.0625 162.449 55.1369 160.561 53.2856C158.709 51.3973 157.784 49.1202 157.784 46.4544Z" fill="black"/>
</svg>
